<svg width="538" height="385" viewBox="0 0 538 385" fill="none" xmlns="http://www.w3.org/2000/svg" class="animation animation--burger animating animated"><g clip-path="url(#clip0_955_1880)" stroke-dasharray="1000 1000" stroke-dashoffset="-340" style="opacity: 1; stroke-dashoffset: 0px;"><path d="M285.039 377.192L281.78 318.552H205.825L202.566 377.192" stroke="black" stroke-width="4" stroke-miterlimit="10"></path> <path d="M167.984 318.486H364.36H415.057C427.7 318.486 437.945 308.241 437.945 295.597V226.837" stroke="black" stroke-width="4" stroke-miterlimit="10"></path> <path d="M437.305 291.326H56.9575L55.3711 291.345C55.3711 306.272 67.3645 318.486 82.2916 318.486H147.935" stroke="black" stroke-width="4" stroke-miterlimit="10"></path> <path d="M83.0841 84.5956L72.83 85.2073C63.3596 85.2359 55.6953 92.9195 55.6953 102.39V172.89" stroke="black" stroke-width="4" stroke-miterlimit="10"></path> <path d="M160.805 377.192H257.965" stroke="black" stroke-width="4" stroke-miterlimit="10"></path> <path d="M75.332 377.192H145.094" stroke="black" stroke-width="4" stroke-miterlimit="10"></path> <path d="M279.949 377.192H327.301" stroke="black" stroke-width="4" stroke-miterlimit="10"></path> <path d="M337.707 377.192H399.509" stroke="black" stroke-width="4" stroke-miterlimit="10"></path> <path d="M189.754 230.786L306.836 231.705C309.531 231.726 311.702 233.932 311.681 236.627L311.671 237.993C311.624 243.909 306.78 248.678 300.864 248.631L195.46 247.804C189.545 247.757 184.776 242.912 184.822 236.997L184.833 235.631C184.854 232.936 187.059 230.764 189.754 230.786Z" fill="#FFE26D" class="animate__float"></path> <path d="M301.487 199.448C310.403 199.515 317.934 192.586 318.068 183.803C318.068 183.746 318.068 183.689 318.068 183.631C318.24 162.11 287.659 144.42 249.777 144.124C211.895 143.828 181.047 161.039 180.875 182.561C180.875 182.618 180.875 182.676 180.875 182.733C180.875 191.516 188.291 198.559 197.207 198.626L301.478 199.438L301.487 199.448Z" fill="#FFE26D" class="animate__float"></path> <path d="M296.44 195.701C305.356 195.768 312.887 188.84 313.021 180.057C313.021 180 313.021 179.943 313.021 179.885C313.193 158.364 282.612 140.674 244.73 140.378C206.848 140.082 176 157.293 175.828 178.815C175.828 178.872 175.828 178.93 175.828 178.987C175.828 187.769 183.244 194.813 192.16 194.88L296.431 195.692L296.44 195.701Z" stroke="black" stroke-width="4" stroke-miterlimit="10" class="animate__float"></path> <path d="M186.57 193.981C178.084 193.914 175.809 196.151 175.781 200.824C175.752 205.497 177.434 210.533 190.259 210.639C203.083 210.744 229.583 210.075 239.025 221.409C239.025 221.409 248.983 211.088 267.169 211.231C285.355 211.374 302.681 211.508 302.681 211.508C307.755 211.546 311.826 215.694 311.788 220.759C311.75 225.834 307.602 229.905 302.537 229.867L184.401 228.949C179.326 228.911 175.255 224.763 175.293 219.698C175.331 214.624 181.199 210.428 186.274 210.467" stroke="black" stroke-width="4" stroke-miterlimit="10" class="animate__float"></path> <path d="M293.429 229.8C301.169 229.857 310.315 230.622 310.238 241.191C310.152 251.761 308.327 260.754 245.847 260.266L242.502 260.238C180.022 259.75 178.331 250.729 178.417 240.159C178.503 229.589 187.658 228.968 195.398 229.035" stroke="black" stroke-width="4" stroke-miterlimit="10" class="animate__float"></path> <path d="M208.035 140.961C208.035 140.961 213.97 146.313 219.016 150.976" stroke="black" stroke-width="4" stroke-miterlimit="10" class="animate__float"></path> <path d="M239.801 150.451L251.832 148.004" stroke="black" stroke-width="4" stroke-miterlimit="10" class="animate__float"></path> <path d="M263.309 156.863C263.309 156.863 276.047 152.114 279.058 151.674" stroke="black" stroke-width="4" stroke-miterlimit="10" class="animate__float"></path> <path d="M262.247 136.89L261.215 141.831" stroke="black" stroke-width="4" stroke-miterlimit="10" class="animate__float"></path> <path d="M249.682 85.3984L273.84 99.9819L269.884 73.9304L289.14 56.1932L263.558 52.103L251.65 26.6918L239.246 50.507L213.625 53.7658L231.84 73.2901L226.001 99.2078L249.682 85.3984Z" stroke="black" stroke-width="4" stroke-miterlimit="10"></path> <path d="M176.165 89.9378L192.803 97.5927L188.932 79.0814L202.025 65.6065L183.533 63.6952L173.986 45.9676L166.054 63.5136L147.82 66.868L161.046 79.5593L157.415 98.405L176.165 89.9378Z" stroke="black" stroke-width="4" stroke-miterlimit="10"></path> <path d="M114.868 88.6763L126.899 94.2097L124.099 80.8208L133.57 71.073L120.2 69.6872L113.291 56.8622L107.547 69.563L94.3594 71.9808L103.925 81.1648L101.297 94.7926L114.868 88.6763Z" stroke="black" stroke-width="4" stroke-miterlimit="10"></path> <path d="M327.336 90.8266L310.708 98.4815L314.578 79.9702L301.477 66.4953L319.968 64.584L329.515 46.8564L337.457 64.4024L355.681 67.7568L342.464 80.4481L346.096 99.2938L327.336 90.8266Z" stroke="black" stroke-width="4" stroke-miterlimit="10"></path> <path d="M388.641 89.5651L376.6 95.0984L379.4 81.7095L369.93 71.9617L383.309 70.576L390.208 57.7509L395.952 70.4518L409.14 72.8696L399.574 82.0536L402.202 95.6814L388.641 89.5651Z" stroke="black" stroke-width="4" stroke-miterlimit="10"></path> <path d="M98.4599 133.583L84.6891 141.448C83.9723 141.859 83.9532 143.025 84.6604 143.465L97.7623 151.588" stroke="#E3736C" stroke-width="4" stroke-miterlimit="10"></path> <path d="M116.754 151.588L130.525 143.723C131.242 143.312 131.261 142.146 130.553 141.706L117.452 133.583" stroke="#E3736C" stroke-width="4" stroke-miterlimit="10"></path> <path d="M111.314 125.546L104.434 158.058" stroke="#E3736C" stroke-width="4" stroke-miterlimit="10"></path> <path d="M461.902 184.081C461.902 184.081 466.203 194 478.225 192.51C490.247 191.019 530.441 184.702 530.441 184.702C530.441 184.702 531.674 189.795 520.522 192.07C509.379 194.354 471.994 198.741 471.994 198.741C471.994 198.741 465.935 196.198 464.1 192.863C462.256 189.528 461.902 184.09 461.902 184.09V184.081Z" fill="#B3E2F1"></path> <path d="M530.436 161.728C534.392 161.154 537.116 157.456 536.476 153.49C535.835 149.524 532.06 147.029 528.161 147.593L512.202 149.896L523.431 147.488C527.311 146.81 530.111 143.188 529.499 139.298C528.878 135.332 525.132 132.666 521.195 133.354L491.13 138.304C491.13 138.304 489.649 124.801 487.814 117.48C485.205 107.063 479.022 104.712 474.492 104.502C471.683 104.368 469.504 106.939 469.991 109.711L472.81 125.412L466.58 149.38L457.902 157.093L462.652 188.954C463.55 194.975 469.15 199.142 475.18 198.272L524.444 191.162C528.286 190.608 531.181 187.167 530.78 183.306C530.465 180.344 528.41 178.031 525.772 177.209C525.562 177.142 525.581 176.846 525.791 176.818L527.426 176.579C531.143 176.043 534 172.794 533.771 169.048C533.542 165.302 530.321 162.31 526.623 162.32V162.263L530.426 161.708L530.436 161.728Z" stroke="black" stroke-width="4" stroke-miterlimit="10"></path> <path d="M447.572 156.091L429.544 158.692C426.702 159.102 424.731 161.738 425.141 164.58L431.133 206.113C431.543 208.955 434.179 210.926 437.021 210.516L455.049 207.915C457.891 207.505 459.862 204.869 459.452 202.027L453.46 160.494C453.05 157.652 450.414 155.681 447.572 156.091Z" fill="#009FD1"></path> <path d="M442.83 152.92L424.802 155.521C421.96 155.931 419.989 158.567 420.399 161.409L426.391 202.942C426.801 205.784 429.437 207.755 432.279 207.345L450.307 204.744C453.148 204.334 455.12 201.698 454.71 198.856L448.717 157.323C448.307 154.481 445.671 152.51 442.83 152.92Z" stroke="black" stroke-width="4" stroke-miterlimit="10"></path> <path d="M423.65 190.302C423.65 190.302 409.43 175.671 393.987 182.246C378.314 188.916 377.798 218.16 393.824 218.896C409.851 219.631 390.709 165.225 356.201 181.252C321.683 197.278 358.322 289.902 358.322 289.902" stroke="black" stroke-width="4" stroke-miterlimit="10"></path> <path d="M92.6464 173.68L11.8415 190.37C7.86674 191.191 5.31006 195.079 6.13103 199.054L16.523 249.369C17.344 253.343 21.2317 255.9 25.2065 255.079L106.011 238.389C109.986 237.568 112.543 233.68 111.722 229.705L101.33 179.391C100.509 175.416 96.6212 172.859 92.6464 173.68Z" fill="#B3E2F1"></path> <path d="M96.1381 247.699L90.4807 248.846L101.031 263.277C101.49 263.907 100.84 264.739 100.123 264.452L70.7371 252.841L22.4578 262.617C17.4025 263.64 12.4809 260.371 11.4583 255.326L1.62475 206.72C0.602209 201.665 3.87052 196.743 8.91633 195.721L82.5966 180.803C87.652 179.78 92.5736 183.048 93.5961 188.094L103.439 236.7C104.462 241.755 101.194 246.677 96.1477 247.699H96.1381Z" stroke="black" stroke-width="4" stroke-miterlimit="10"></path> <path d="M18.7969 210.954L54.3278 203.758" stroke="black" stroke-width="4" stroke-miterlimit="10"></path> <path d="M21.5508 224.534L85.5599 211.575" stroke="black" stroke-width="4" stroke-miterlimit="10"></path> <path d="M24.6953 240.083L88.714 227.124" stroke="black" stroke-width="4" stroke-miterlimit="10"></path> <path d="M440.171 127.763V97.975C440.171 90.5017 434.112 84.4332 426.629 84.4332H415.324" stroke="black" stroke-width="4" stroke-miterlimit="10"></path> <path d="M55.3711 291.345V265.494" stroke="black" stroke-width="4" stroke-miterlimit="10"></path> <path d="M405.766 383.566C409.693 383.566 412.876 380.383 412.876 376.456C412.876 372.53 409.693 369.346 405.766 369.346C401.84 369.346 398.656 372.53 398.656 376.456C398.656 380.383 401.84 383.566 405.766 383.566Z" stroke="black" stroke-width="4" stroke-miterlimit="10"></path> <path d="M334.312 112.797V117.041" stroke="black" stroke-width="4" stroke-miterlimit="10" class="animate__float"></path> <path d="M199.676 122.459L202.218 125.431" stroke="black" stroke-width="4" stroke-miterlimit="10" class="animate__float"></path> <path d="M172.484 140.722L170.793 144.965" stroke="black" stroke-width="4" stroke-miterlimit="10" class="animate__float"></path> <path d="M281.648 119.057L286.312 122.88" stroke="black" stroke-width="4" stroke-miterlimit="10" class="animate__float"></path> <path d="M185.23 33.3719L195.848 46.9615" stroke="black" stroke-width="4" stroke-miterlimit="10"></path> <path d="M202.215 12.1274L213.262 38.4656" stroke="black" stroke-width="4" stroke-miterlimit="10"></path> <path d="M227.703 0.238922L233.227 32.9418" stroke="black" stroke-width="4" stroke-miterlimit="10"></path> <path d="M314.77 33.3719L304.152 46.9615" stroke="black" stroke-width="4" stroke-miterlimit="10"></path> <path d="M297.78 12.1274L286.742 38.4656" stroke="black" stroke-width="4" stroke-miterlimit="10"></path> <path d="M272.301 0.238922L266.777 32.9418" stroke="black" stroke-width="4" stroke-miterlimit="10"></path> <path d="M446.863 219.832C446.863 219.832 469.799 216.009 487 226.206" stroke="black" stroke-width="4" stroke-miterlimit="10"></path> <path d="M447.5 228.108C447.5 228.108 466.613 230.66 472.987 240.216" stroke="black" stroke-width="4" stroke-miterlimit="10"></path></g> <defs stroke-dasharray="1000 1000" stroke-dashoffset="-340" style="opacity: 1; stroke-dashoffset: 0px;"><clipPath id="clip0_955_1880"><rect width="538" height="385" fill="white"></rect></clipPath></defs></svg>
